# xmcd
#
# Track frame offsets:
#   150
#   13397
#   22102
#   35942
#   47407
#   58830
#   70547
#   80340
#   93670
#   106750
#   123537
#   133752
#   148157
#   161732
#   175052
#   187847
#   208187
#   220702
#   235925
#   250142
#
# Disc length: 3514 seconds
#
# Revision: 0
# Processed by: cddbd v1.5.1PL0 Copyright (c) Steve Scherf et al.
# Submitted via: uFREEDB ActiveX Control 1.5
#
DISCID=240db814
DTITLE=Gilberto e Gilmar - Raízes sertanejas
DYEAR=1900
DGENRE=Country
TTITLE0=Só mais uma vez
TTITLE1=Quem ama não vê defeito
TTITLE2=Capa de revista
TTITLE3=Cheiro de mulher
TTITLE4=Assino com x
TTITLE5=Fome de amor
TTITLE6=amor proibido
TTITLE7=sufoco
TTITLE8=o abajur
TTITLE9=eu sempre vou lembrar de voce
TTITLE10=da boca pra fora
TTITLE11=triste
TTITLE12=voce não nasceu pra mim
TTITLE13=fuscão preto
TTITLE14=musica da saudade
TTITLE15=o mais importante é o verdadeiro amor
TTITLE16=pobre de quem ama na vida
TTITLE17=o trem da 7
TTITLE18=palavras de amor
TTITLE19=paixão
EXTD=
EXTT0=
EXTT1=
EXTT2=
EXTT3=
EXTT4=
EXTT5=
EXTT6=
EXTT7=
EXTT8=
EXTT9=
EXTT10=
EXTT11=
EXTT12=
EXTT13=
EXTT14=
EXTT15=
EXTT16=
EXTT17=
EXTT18=
EXTT19=
PLAYORDER=
